<svg width="25" height="24" viewBox="0 0 25 24" fill="none" xmlns="http://www.w3.org/2000/svg">
<rect width="25" height="24" fill="black"/>
<g clip-path="url(#clip0_0_1)">
<rect width="1440" height="1198" transform="translate(-1072 -876)" fill="#FAFBFF"/>
<g filter="url(#filter0_d_0_1)">
<path d="M-695 -718C-695 -734.569 -681.569 -748 -665 -748H243C259.569 -748 273 -734.569 273 -718V34C273 50.5686 259.569 64 243 64H-665C-681.569 64 -695 50.5686 -695 34V-718Z" fill="white"/>
</g>
<rect x="0.5" y="0.5" width="24" height="23" rx="3.5" fill="#5932EA"/>
<path d="M10.54 8.5V7.252H13.036V16H11.656V8.5H10.54Z" fill="white"/>
<rect x="0.5" y="0.5" width="24" height="23" rx="3.5" stroke="#5932EA"/>
</g>
<defs>
<filter id="filter0_d_0_1" x="-755" y="-798" width="1088" height="932" filterUnits="userSpaceOnUse" color-interpolation-filters="sRGB">
<feFlood flood-opacity="0" result="BackgroundImageFix"/>
<feColorMatrix in="SourceAlpha" type="matrix" values="0 0 0 0 0 0 0 0 0 0 0 0 0 0 0 0 0 0 127 0" result="hardAlpha"/>
<feOffset dy="10"/>
<feGaussianBlur stdDeviation="30"/>
<feComposite in2="hardAlpha" operator="out"/>
<feColorMatrix type="matrix" values="0 0 0 0 0.885625 0 0 0 0 0.92625 0 0 0 0 0.975 0 0 0 0.5 0"/>
<feBlend mode="normal" in2="BackgroundImageFix" result="effect1_dropShadow_0_1"/>
<feBlend mode="normal" in="SourceGraphic" in2="effect1_dropShadow_0_1" result="shape"/>
</filter>
<clipPath id="clip0_0_1">
<rect width="1440" height="1198" fill="white" transform="translate(-1072 -876)"/>
</clipPath>
</defs>
</svg>
